<?xml version="1.0" encoding="UTF-8" standalone="no"?>
<!-- Generator: Adobe Illustrator 16.0.0, SVG Export Plug-In . SVG Version: 6.00 Build 0)  -->

<svg
   xmlns:dc="http://purl.org/dc/elements/1.1/"
   xmlns:cc="http://creativecommons.org/ns#"
   xmlns:rdf="http://www.w3.org/1999/02/22-rdf-syntax-ns#"
   xmlns:svg="http://www.w3.org/2000/svg"
   xmlns="http://www.w3.org/2000/svg"
   xmlns:xlink="http://www.w3.org/1999/xlink"
   xmlns:sodipodi="http://sodipodi.sourceforge.net/DTD/sodipodi-0.dtd"
   xmlns:inkscape="http://www.inkscape.org/namespaces/inkscape"
   version="1.1"
   id="Capa_1"
   x="0px"
   y="0px"
   width="31.398px"
   height="31.398px"
   viewBox="0 0 31.398 31.398"
   style="enable-background:new 0 0 31.398 31.398;"
   xml:space="preserve"
   sodipodi:docname="network.svg"
   inkscape:version="0.92.5 (2060ec1f9f, 2020-04-08)"><metadata
   id="metadata41"><rdf:RDF><cc:Work
       rdf:about=""><dc:format>image/svg+xml</dc:format><dc:type
         rdf:resource="http://purl.org/dc/dcmitype/StillImage" /></cc:Work></rdf:RDF></metadata><defs
   id="defs39"><linearGradient
     inkscape:collect="always"
     id="linearGradient4555"><stop
       style="stop-color:#800080;stop-opacity:1;"
       offset="0"
       id="stop4551" /><stop
       style="stop-color:#800080;stop-opacity:0;"
       offset="1"
       id="stop4553" /></linearGradient><linearGradient
     inkscape:collect="always"
     xlink:href="#linearGradient4555"
     id="linearGradient4557"
     x1="2.011"
     y1="15.699"
     x2="29.387"
     y2="15.699"
     gradientUnits="userSpaceOnUse" /></defs><sodipodi:namedview
   pagecolor="#ffffff"
   bordercolor="#666666"
   borderopacity="1"
   objecttolerance="10"
   gridtolerance="10"
   guidetolerance="10"
   inkscape:pageopacity="0"
   inkscape:pageshadow="2"
   inkscape:window-width="1920"
   inkscape:window-height="1020"
   id="namedview37"
   showgrid="false"
   inkscape:zoom="7.5164021"
   inkscape:cx="-8.2486273"
   inkscape:cy="15.699"
   inkscape:window-x="0"
   inkscape:window-y="28"
   inkscape:window-maximized="1"
   inkscape:current-layer="Capa_1" />
<g
   id="g4"
   style="fill:#323377;fill-opacity:1">
	<path
   d="M24.709,22.047c-1.034,0-1.981,0.347-2.756,0.915l-10.666-6.522c0.04-0.242,0.075-0.486,0.075-0.74   c0-0.253-0.035-0.496-0.075-0.738l10.667-6.524c0.772,0.568,1.721,0.915,2.754,0.915c2.584,0,4.678-2.093,4.678-4.677   C29.387,2.094,27.293,0,24.709,0c-2.582,0-4.676,2.094-4.676,4.676c0,0.253,0.036,0.497,0.075,0.74L9.442,11.938   c-0.773-0.568-1.72-0.915-2.754-0.915c-2.583,0-4.677,2.094-4.677,4.676c0,2.583,2.094,4.677,4.677,4.677   c1.034,0,1.98-0.347,2.754-0.915l10.666,6.521c-0.039,0.243-0.075,0.486-0.075,0.739c0,2.583,2.094,4.677,4.676,4.677   c2.584,0,4.678-2.095,4.678-4.677C29.386,24.14,27.291,22.047,24.709,22.047z"
   id="path2"
   style="fill:#323377;fill-opacity:1" />
</g>
<g
   id="g6">
</g>
<g
   id="g8">
</g>
<g
   id="g10">
</g>
<g
   id="g12">
</g>
<g
   id="g14">
</g>
<g
   id="g16">
</g>
<g
   id="g18">
</g>
<g
   id="g20">
</g>
<g
   id="g22">
</g>
<g
   id="g24">
</g>
<g
   id="g26">
</g>
<g
   id="g28">
</g>
<g
   id="g30">
</g>
<g
   id="g32">
</g>
<g
   id="g34">
</g>
</svg>